<svg width="50" height="50" viewBox="0 0 50 50" fill="none" xmlns="http://www.w3.org/2000/svg">
<path fill-rule="evenodd" clip-rule="evenodd" d="M25 37.5C31.9035 37.5 37.5 31.9035 37.5 25C37.5 18.0964 31.9035 12.5 25 12.5C18.0964 12.5 12.5 18.0964 12.5 25C12.5 31.9035 18.0964 37.5 25 37.5ZM25 33.3333C29.6023 33.3333 33.3333 29.6023 33.3333 25C33.3333 20.3976 29.6023 16.6667 25 16.6667C20.3976 16.6667 16.6667 20.3976 16.6667 25C16.6667 29.6023 20.3976 33.3333 25 33.3333Z" fill="#2D2D2D"/>
<path d="M37.5 10.4167C36.3493 10.4167 35.4166 11.3495 35.4166 12.5001C35.4166 13.6507 36.3493 14.5834 37.5 14.5834C38.6506 14.5834 39.5833 13.6507 39.5833 12.5001C39.5833 11.3495 38.6506 10.4167 37.5 10.4167Z" fill="#2D2D2D"/>
<path fill-rule="evenodd" clip-rule="evenodd" d="M3.44579 8.90838C2.08337 11.5823 2.08337 15.0826 2.08337 22.0833V27.9166C2.08337 34.9172 2.08337 38.4176 3.44579 41.0914C4.64421 43.4435 6.55646 45.3558 8.9085 46.5541C11.5824 47.9166 15.0827 47.9166 22.0834 47.9166H27.9167C34.9173 47.9166 38.4177 47.9166 41.0915 46.5541C43.4436 45.3558 45.3559 43.4435 46.5542 41.0914C47.9167 38.4176 47.9167 34.9172 47.9167 27.9166V22.0833C47.9167 15.0826 47.9167 11.5823 46.5542 8.90838C45.3559 6.55634 43.4436 4.64409 41.0915 3.44567C38.4177 2.08325 34.9173 2.08325 27.9167 2.08325H22.0834C15.0827 2.08325 11.5824 2.08325 8.9085 3.44567C6.55646 4.64409 4.64421 6.55634 3.44579 8.90838ZM27.9167 6.24992H22.0834C18.5143 6.24992 16.0881 6.25317 14.2127 6.40638C12.386 6.55563 11.4518 6.82615 10.8001 7.15819C9.2321 7.95715 7.95727 9.23198 7.15831 10.8C6.82627 11.4517 6.55575 12.3858 6.4065 14.2126C6.25329 16.0879 6.25004 18.5142 6.25004 22.0833V27.9166C6.25004 31.4858 6.25329 33.9118 6.4065 35.7872C6.55575 37.6141 6.82627 38.5483 7.15831 39.1999C7.95727 40.7678 9.2321 42.0426 10.8001 42.8416C11.4518 43.1737 12.386 43.4443 14.2127 43.5935C16.0881 43.7466 18.5143 43.7499 22.0834 43.7499H27.9167C31.4859 43.7499 33.9119 43.7466 35.7873 43.5935C37.6142 43.4443 38.5484 43.1737 39.2 42.8416C40.768 42.0426 42.0427 40.7678 42.8417 39.1999C43.1738 38.5483 43.4444 37.6141 43.5936 35.7872C43.7467 33.9118 43.75 31.4858 43.75 27.9166V22.0833C43.75 18.5142 43.7467 16.0879 43.5936 14.2126C43.4444 12.3858 43.1738 11.4517 42.8417 10.8C42.0427 9.23198 40.768 7.95715 39.2 7.15819C38.5484 6.82615 37.6142 6.55563 35.7873 6.40638C33.9119 6.25317 31.4859 6.24992 27.9167 6.24992Z" fill="#2D2D2D"/>
</svg>
