<svg width="50" height="50" viewBox="0 0 50 50" fill="none" xmlns="http://www.w3.org/2000/svg">
<path fill-rule="evenodd" clip-rule="evenodd" d="M7.08329 7.08341C4.16663 10.0279 4.16663 14.7362 4.16663 24.1667V25.8334C4.16663 35.2501 4.16663 39.9584 7.08329 42.9167C10.0277 45.8334 14.7361 45.8334 24.1666 45.8334H25.8333C35.25 45.8334 39.9583 45.8334 42.9166 42.9167C45.8333 39.9724 45.8333 35.264 45.8333 25.8334V24.1667C45.8333 14.7501 45.8333 10.0417 42.9166 7.08341C39.9723 4.16675 35.2639 4.16675 25.8333 4.16675H24.1666C14.75 4.16675 10.0416 4.16675 7.08329 7.08341ZM11.1944 16.8473C11.4166 27.6807 16.8333 34.1807 26.3333 34.1807H26.8889V27.9861C30.375 28.3334 33.0139 30.889 34.0693 34.1807H39C38.4943 32.3103 37.5977 30.5682 36.3695 29.0695C35.1414 27.5709 33.6095 26.3497 31.875 25.4861C33.4293 24.5397 34.7718 23.2826 35.8185 21.7938C36.8652 20.3051 37.5937 18.6164 37.9583 16.8334H33.486C32.5139 20.2779 29.625 23.4028 26.8889 23.6945V16.8473H22.4027V28.8474C19.625 28.1528 16.125 24.7917 15.9722 16.8473H11.1944Z" fill="#2D2D2D"/>
</svg>
