<svg width="50" height="50" viewBox="0 0 50 50" fill="none" xmlns="http://www.w3.org/2000/svg">
<path d="M40.625 19.7917L39.145 14.3639C38.5744 12.2709 38.289 11.2245 37.7037 10.4364C37.1208 9.65153 36.3287 9.04655 35.4183 8.69068C34.504 8.33334 33.4194 8.33334 31.25 8.33334M9.375 19.7917L10.855 14.3639C11.4257 12.2709 11.711 11.2245 12.2963 10.4364C12.8791 9.65153 13.6712 9.04655 14.5817 8.69068C15.496 8.33334 16.5807 8.33334 18.75 8.33334" stroke="#2D2D2D" stroke-width="2"/>
<path d="M18.75 8.33333C18.75 7.18275 19.6827 6.25 20.8333 6.25H29.1667C30.3173 6.25 31.25 7.18275 31.25 8.33333C31.25 9.48392 30.3173 10.4167 29.1667 10.4167H20.8333C19.6827 10.4167 18.75 9.48392 18.75 8.33333Z" stroke="#2D2D2D" stroke-width="2"/>
<path d="M16.6666 27.0833V35.4167" stroke="#2D2D2D" stroke-width="2" stroke-linecap="round" stroke-linejoin="round"/>
<path d="M33.3334 27.0833V35.4167" stroke="#2D2D2D" stroke-width="2" stroke-linecap="round" stroke-linejoin="round"/>
<path d="M25 27.0833V35.4167" stroke="#2D2D2D" stroke-width="2" stroke-linecap="round" stroke-linejoin="round"/>
<path d="M8.05006 34.2817C9.18687 38.829 9.75529 41.1025 11.4507 42.4262C13.1461 43.75 15.4896 43.75 20.1769 43.75H29.824C34.5113 43.75 36.8549 43.75 38.5503 42.4262C40.2457 41.1025 40.814 38.829 41.9509 34.2817C43.7382 27.1321 44.6319 23.5573 42.7553 21.1537C40.8786 18.75 37.1938 18.75 29.824 18.75H20.1769C12.8072 18.75 9.12245 18.75 7.24571 21.1537C6.14406 22.5646 5.99704 24.3792 6.42502 27.0833" stroke="#2D2D2D" stroke-width="3" stroke-linecap="round"/>
</svg>
