<svg width="28" height="28" viewBox="0 0 28 28" fill="none" xmlns="http://www.w3.org/2000/svg">
<path fill-rule="evenodd" clip-rule="evenodd" d="M12.6653 15.3347C11.3003 13.9697 10.2713 12.4413 9.58767 10.8908C9.44301 10.563 9.52817 10.1792 9.78134 9.92601L10.7368 8.97168C11.5197 8.18885 11.5197 7.08168 10.836 6.39801L9.46634 5.02835C8.55517 4.11718 7.07817 4.11718 6.16701 5.02835L5.40634 5.78901C4.54184 6.65351 4.18134 7.90068 4.41467 9.13735C4.99101 12.1858 6.76201 15.5237 9.61917 18.3808C12.4763 21.238 15.8142 23.009 18.8627 23.5853C20.0993 23.8187 21.3465 23.4582 22.211 22.5937L22.9705 21.8342C23.8817 20.923 23.8817 19.446 22.9705 18.5348L21.602 17.1663C20.9183 16.4827 19.81 16.4827 19.1275 17.1663L18.074 18.221C17.8208 18.4742 17.437 18.5593 17.1092 18.4147C15.5587 17.7298 14.0303 16.6997 12.6653 15.3347Z" fill="white"/>
</svg>
